<svg xmlns="http://www.w3.org/2000/svg" viewBox="0 0 512 512">
  <rect width="512" height="512" rx="96" fill="#0a0a0a"/>
  <g transform="translate(256,220)">
    <!-- palm trunk -->
    <path d="M-6 10 L-10 200 Q0 210 10 200 L6 10Z" fill="#B8860B"/>
    <!-- palm leaves -->
    <path d="M0 0 C-20-40-90-70-130-50 C-80-70-30-50 0 0Z" fill="#FFD700" opacity=".9"/>
    <path d="M0 0 C20-40 90-70 130-50 C80-70 30-50 0 0Z" fill="#FFD700" opacity=".9"/>
    <path d="M0-5 C-30-50-110-60-140-35 C-90-60-40-45 0-5Z" fill="#FFE44D" opacity=".8"/>
    <path d="M0-5 C30-50 110-60 140-35 C90-60 40-45 0-5Z" fill="#FFE44D" opacity=".8"/>
    <path d="M0-8 C-10-60-50-100-70-95 C-45-90-15-55 0-8Z" fill="#FFD700"/>
    <path d="M0-8 C10-60 50-100 70-95 C45-90 15-55 0-8Z" fill="#FFD700"/>
    <!-- coconuts -->
    <circle cx="-8" cy="5" r="6" fill="#B8860B"/>
    <circle cx="8" cy="5" r="6" fill="#B8860B"/>
    <circle cx="0" cy="-2" r="5" fill="#DAA520"/>
  </g>
  <!-- sun/glow -->
  <circle cx="256" cy="160" r="80" fill="none" stroke="#FFD700" stroke-width="1" opacity=".15"/>
  <circle cx="256" cy="160" r="120" fill="none" stroke="#FFD700" stroke-width=".5" opacity=".08"/>
</svg>
